<?xml version="1.0" encoding="UTF-8" standalone="no"?>
<svg
   xmlns:dc="http://purl.org/dc/elements/1.1/"
   xmlns:cc="http://creativecommons.org/ns#"
   xmlns:rdf="http://www.w3.org/1999/02/22-rdf-syntax-ns#"
   xmlns:svg="http://www.w3.org/2000/svg"
   xmlns="http://www.w3.org/2000/svg"
   viewBox="0 0 101.33757 113.38583"
   height="113.38583"
   width="101.33757"
   xml:space="preserve"
   id="svg2"
   version="1.1"><metadata
     id="metadata8"><rdf:RDF><cc:Work
         rdf:about=""><dc:format>image/svg+xml</dc:format><dc:type
           rdf:resource="http://purl.org/dc/dcmitype/StillImage" /><dc:title></dc:title></cc:Work></rdf:RDF></metadata><defs
     id="defs6"><clipPath
       id="clipPath18"
       clipPathUnits="userSpaceOnUse"><path
         id="path16"
         d="M 0,500 H 500 V 0 H 0 Z" /></clipPath></defs><g
     transform="matrix(1.3333333,0,0,-1.3333333,-136.37106,238.84062)"
     id="g10"><g
       transform="matrix(0.25939651,0,0,0.25939651,75.747666,69.684197)"
       id="g12"><g
         clip-path="url(#clipPath18)"
         id="g14"><g
           transform="translate(285.5049,241.6992)"
           id="g20"><path
             id="path22"
             style="fill:#e5006d;fill-opacity:1;fill-rule:nonzero;stroke:none"
             d="m 0,0 c 4.41,13.794 -1.377,29.739 -13.313,37.443 -12.21,7.469 -25.367,7.715 -37.545,3.629 -24.788,-8.141 -36.969,-39.499 -24.669,-61.721 5.512,-11.02 16.249,-19.466 27.778,-22.251 11.31,-3.258 23.607,-2.527 34.466,1.607 22.06,8.171 36.679,31.467 34.774,54.384 C 20.152,36.046 2.466,56.51 -19.41,61.183 -40.815,66.802 -64.532,60.315 -79.933,45.015 -95.582,30.013 -102.462,6.78 -97.546,-13.941 c 4.431,-20.902 20.411,-38.392 40.211,-45.107 -19.56,7.455 -34.454,25.299 -37.968,45.569 -4.002,20.124 3.496,41.814 18.504,55.157 14.829,13.674 36.677,18.606 55.587,12.878 C -2.034,49.673 11.877,31.651 12.349,12.6 13.184,-6.479 0.439,-24.77 -17.219,-30.545 c -17.321,-6.053 -39.172,-0.048 -45.981,15.952 -7.81,15.614 1.461,35.969 17.545,40.511 7.461,2.562 17.204,1.223 22.596,-2.608 5.593,-3.938 7.908,-11.626 5.607,-17.768 -2.21,-6.647 -8.497,-10.694 -14.5,-11.107 -7.173,-0.136 -8.797,1.169 -9.832,4.639 -0.704,3.276 1.651,6.688 4.241,8.042 2.54,1.534 4.966,1.804 5.414,3.082 0.446,0.956 -1.303,3.654 -6.705,4.156 -4.958,0.774 -14.897,-3.501 -16.484,-14.991 -0.7,-5.46 1.24,-12.112 6.567,-16.604 5.969,-4.698 11.201,-5.527 17.73,-5.852 C -18.368,-23.467 -4.099,-14.396 0,0" /></g><g
           transform="translate(155.6997,123.3438)"
           id="g24"><path
             id="path26"
             style="fill:#e5006d;fill-opacity:1;fill-rule:nonzero;stroke:none"
             d="m 0,0 c 0.574,-0.603 0.861,-1.38 0.861,-2.331 v -23.856 c 0,-0.924 -0.266,-1.653 -0.798,-2.184 -0.532,-0.532 -1.232,-0.798 -2.1,-0.798 -0.84,0 -1.526,0.266 -2.058,0.798 -0.532,0.531 -0.798,1.26 -0.798,2.184 v 14.826 l -5.964,-11.214 c -0.393,-0.729 -0.819,-1.26 -1.281,-1.596 -0.462,-0.336 -1.015,-0.504 -1.659,-0.504 -0.616,0 -1.162,0.168 -1.638,0.504 -0.477,0.336 -0.91,0.867 -1.302,1.596 l -5.964,11.004 v -14.616 c 0,-0.896 -0.266,-1.617 -0.798,-2.163 -0.532,-0.546 -1.232,-0.819 -2.1,-0.819 -0.84,0 -1.526,0.266 -2.058,0.798 -0.532,0.531 -0.798,1.26 -0.798,2.184 v 23.856 c 0,0.951 0.287,1.728 0.861,2.331 0.573,0.602 1.323,0.903 2.247,0.903 1.344,0 2.366,-0.714 3.066,-2.142 l 8.526,-16.17 8.484,16.17 c 0.756,1.428 1.764,2.142 3.024,2.142 C -1.323,0.903 -0.574,0.602 0,0" /></g><g
           transform="translate(184.1543,97.0732)"
           id="g28"><path
             id="path30"
             style="fill:#e5006d;fill-opacity:1;fill-rule:nonzero;stroke:none"
             d="m 0,0 c 0,-1.765 -1.022,-2.646 -3.066,-2.646 h -14.238 c -0.98,0 -1.736,0.265 -2.268,0.797 -0.532,0.532 -0.798,1.288 -0.798,2.269 v 7.224 l -0.336,-0.21 c -0.504,-0.309 -1.022,-0.462 -1.554,-0.462 -0.644,0 -1.19,0.237 -1.638,0.714 -0.448,0.475 -0.672,1.021 -0.672,1.637 0,0.448 0.126,0.875 0.378,1.281 0.252,0.406 0.616,0.75 1.092,1.03 l 2.73,1.554 v 10.751 c 0,0.98 0.294,1.764 0.882,2.353 0.588,0.588 1.372,0.882 2.352,0.882 1.036,0 1.848,-0.294 2.436,-0.882 0.588,-0.589 0.882,-1.373 0.882,-2.353 v -6.971 l 4.242,2.435 c 0.476,0.28 0.966,0.42 1.47,0.42 0.672,0 1.239,-0.238 1.701,-0.714 0.462,-0.476 0.693,-1.022 0.693,-1.637 0,-0.42 -0.126,-0.826 -0.378,-1.218 -0.252,-0.393 -0.616,-0.729 -1.092,-1.009 l -6.636,-3.821 V 2.688 H -3.066 C -1.022,2.688 0,1.791 0,0" /></g><g
           transform="translate(202.8018,124.2891)"
           id="g32"><path
             id="path34"
             style="fill:#e5006d;fill-opacity:1;fill-rule:nonzero;stroke:none"
             d="m 0,0 c 0.784,0 1.491,-0.302 2.121,-0.903 0.63,-0.603 0.945,-1.296 0.945,-2.079 0,-0.701 -0.267,-1.359 -0.798,-1.974 l -9.198,-10.92 v -10.962 c 0,-1.064 -0.308,-1.877 -0.924,-2.436 -0.616,-0.561 -1.386,-0.84 -2.31,-0.84 -0.981,0 -1.778,0.279 -2.394,0.84 -0.616,0.559 -0.924,1.372 -0.924,2.436 v 10.962 l -9.114,10.92 c -0.532,0.56 -0.798,1.218 -0.798,1.974 0,0.783 0.301,1.476 0.903,2.079 0.602,0.601 1.295,0.903 2.079,0.903 0.84,0 1.568,-0.364 2.184,-1.093 l 8.022,-9.785 8.022,9.785 C -1.568,-0.364 -0.84,0 0,0" /></g><g
           transform="translate(233.7344,123.3438)"
           id="g36"><path
             id="path38"
             style="fill:#e5006d;fill-opacity:1;fill-rule:nonzero;stroke:none"
             d="m 0,0 c 0.573,-0.603 0.861,-1.38 0.861,-2.331 v -23.562 c 0,-0.98 -0.288,-1.771 -0.861,-2.373 -0.574,-0.602 -1.323,-0.903 -2.247,-0.903 -1.008,0 -1.821,0.363 -2.436,1.092 l -14.07,18.018 v -15.834 c 0,-0.98 -0.273,-1.771 -0.819,-2.373 -0.546,-0.602 -1.281,-0.903 -2.205,-0.903 -0.924,0 -1.666,0.301 -2.226,0.903 -0.56,0.602 -0.84,1.393 -0.84,2.373 v 23.562 c 0,0.951 0.286,1.728 0.861,2.331 0.573,0.602 1.323,0.903 2.247,0.903 1.035,0 1.833,-0.364 2.394,-1.092 l 14.07,-17.892 v 15.75 c 0,0.951 0.279,1.728 0.84,2.331 0.559,0.602 1.287,0.903 2.184,0.903 C -1.323,0.903 -0.574,0.602 0,0" /></g><g
           transform="translate(259.9072,100.2021)"
           id="g40"><path
             id="path42"
             style="fill:#e5006d;fill-opacity:1;fill-rule:nonzero;stroke:none"
             d="m 0,0 c 1.75,2.113 2.625,5.13 2.625,9.051 0,3.92 -0.868,6.929 -2.604,9.03 -1.736,2.1 -4.186,3.149 -7.35,3.149 -3.135,0 -5.579,-1.056 -7.328,-3.17 -1.75,-2.115 -2.625,-5.118 -2.625,-9.009 0,-3.893 0.875,-6.903 2.625,-9.03 1.749,-2.128 4.193,-3.193 7.328,-3.193 3.136,0 5.579,1.057 7.329,3.172 m -14.489,-4.264 c -2.031,1.233 -3.591,2.983 -4.683,5.25 -1.092,2.269 -1.638,4.942 -1.638,8.023 0,3.107 0.539,5.803 1.617,8.085 1.077,2.281 2.631,4.032 4.662,5.25 2.03,1.218 4.431,1.827 7.202,1.827 2.772,0 5.173,-0.609 7.203,-1.827 2.03,-1.218 3.584,-2.969 4.662,-5.25 C 5.613,14.812 6.153,12.131 6.153,9.051 6.153,5.97 5.607,3.289 4.516,1.008 3.423,-1.274 1.862,-3.031 -0.168,-4.264 c -2.03,-1.232 -4.417,-1.847 -7.161,-1.847 -2.744,0 -5.13,0.615 -7.16,1.847" /></g><g
           transform="translate(277.0518,94.7002)"
           id="g44"><path
             id="path46"
             style="fill:#e5006d;fill-opacity:1;fill-rule:nonzero;stroke:none"
             d="m 0,0 c -0.322,0.321 -0.483,0.748 -0.483,1.28 v 25.116 h -9.03 c -0.505,0 -0.896,0.126 -1.176,0.378 -0.281,0.252 -0.42,0.616 -0.42,1.092 0,0.477 0.139,0.841 0.42,1.093 0.28,0.252 0.671,0.378 1.176,0.378 h 21.546 c 0.504,0 0.896,-0.126 1.176,-0.378 0.279,-0.252 0.42,-0.616 0.42,-1.093 0,-0.476 -0.141,-0.84 -0.42,-1.092 -0.28,-0.252 -0.672,-0.378 -1.176,-0.378 H 3.003 V 1.28 C 3.003,0.748 2.849,0.321 2.541,0 2.232,-0.322 1.812,-0.483 1.281,-0.483 0.749,-0.483 0.321,-0.322 0,0" /></g><g
           transform="translate(295.0273,94.8887)"
           id="g48"><path
             id="path50"
             style="fill:#e5006d;fill-opacity:1;fill-rule:nonzero;stroke:none"
             d="m 0,0 c -0.322,0.308 -0.483,0.714 -0.483,1.218 v 26.25 c 0,0.504 0.161,0.91 0.483,1.219 0.321,0.307 0.749,0.461 1.281,0.461 h 15.708 c 0.504,0 0.896,-0.126 1.176,-0.377 0.279,-0.252 0.42,-0.603 0.42,-1.051 0,-0.449 -0.141,-0.798 -0.42,-1.05 -0.28,-0.252 -0.672,-0.378 -1.176,-0.378 H 2.919 v -10.29 h 13.23 c 0.504,0 0.896,-0.126 1.176,-0.378 0.279,-0.252 0.42,-0.603 0.42,-1.05 0,-0.448 -0.141,-0.798 -0.42,-1.05 -0.28,-0.252 -0.672,-0.378 -1.176,-0.378 H 2.919 V 2.395 h 14.07 c 0.504,0 0.896,-0.121 1.176,-0.358 0.279,-0.238 0.42,-0.596 0.42,-1.071 0,-0.448 -0.141,-0.798 -0.42,-1.05 -0.28,-0.252 -0.672,-0.378 -1.176,-0.378 H 1.281 C 0.749,-0.462 0.321,-0.309 0,0" /></g><g
           transform="translate(340.8701,95.8125)"
           id="g52"><path
             id="path54"
             style="fill:#e5006d;fill-opacity:1;fill-rule:nonzero;stroke:none"
             d="m 0,0 c 0,-0.393 -0.162,-0.749 -0.483,-1.07 -0.323,-0.323 -0.694,-0.484 -1.114,-0.484 -0.364,0 -0.742,0.168 -1.133,0.504 L -18.438,12.685 V 0.168 c 0,-0.532 -0.155,-0.959 -0.462,-1.28 -0.309,-0.323 -0.729,-0.484 -1.26,-0.484 -0.532,0 -0.952,0.161 -1.26,0.484 -0.309,0.321 -0.463,0.748 -0.463,1.28 V 26.67 c 0,0.532 0.154,0.959 0.463,1.281 0.308,0.321 0.728,0.484 1.26,0.484 0.531,0 0.951,-0.163 1.26,-0.484 0.307,-0.322 0.462,-0.749 0.462,-1.281 V 14.616 l 14.994,13.315 c 0.307,0.307 0.672,0.462 1.091,0.462 0.42,0 0.785,-0.163 1.092,-0.484 0.309,-0.322 0.462,-0.679 0.462,-1.071 0,-0.42 -0.181,-0.813 -0.546,-1.176 L -14.91,13.734 -0.588,1.218 C -0.196,0.854 0,0.448 0,0" /></g><g
           transform="translate(349.6475,104.8848)"
           id="g56"><path
             id="path58"
             style="fill:#e5006d;fill-opacity:1;fill-rule:nonzero;stroke:none"
             d="M 0,0 H 13.313 L 6.636,15.078 Z m 20.664,-9.198 c 0,-0.42 -0.161,-0.771 -0.483,-1.05 -0.323,-0.279 -0.707,-0.42 -1.155,-0.42 -0.701,0 -1.19,0.336 -1.47,1.008 l -2.982,6.804 H -1.26 L -4.284,-9.66 c -0.28,-0.672 -0.771,-1.008 -1.47,-1.008 -0.448,0 -0.84,0.147 -1.176,0.441 -0.336,0.294 -0.505,0.651 -0.505,1.071 0,0.223 0.057,0.448 0.169,0.672 L 4.746,18.228 c 0.168,0.392 0.42,0.686 0.756,0.882 0.336,0.196 0.699,0.294 1.092,0.294 0.42,0 0.798,-0.105 1.134,-0.315 0.335,-0.21 0.587,-0.497 0.756,-0.861 L 20.496,-8.484 c 0.111,-0.224 0.168,-0.462 0.168,-0.714" /></g><g
           transform="translate(386.2783,161.4268)"
           id="g60"><path
             id="path62"
             style="fill:#e5006d;fill-opacity:1;fill-rule:nonzero;stroke:none"
             d="m 0,0 c 0,-1.626 -1.374,-3 -3,-3 h -269 c -1.626,0 -3,1.374 -3,3 v 168 c 0,1.626 1.374,3 3,3 H -3 c 1.626,0 3,-1.374 3,-3 z m -3,180 h -123.637 l 72.818,72.818 c 1.757,1.757 1.757,4.607 0,6.364 -1.756,1.757 -4.608,1.757 -6.364,0 l -75.317,-75.318 -48.318,48.318 c -1.757,1.756 -4.606,1.757 -6.364,0 -1.757,-1.757 -1.757,-4.607 0,-6.364 L -144.364,180 H -272 c -6.6,0 -12,-5.4 -12,-12 V 0 c 0,-6.601 5.4,-12 12,-12 H -3 c 6.6,0 12,5.399 12,12 v 168 c 0,6.6 -5.4,12 -12,12" /></g></g></g></g></svg>